<svg version="1.0" xmlns="http://www.w3.org/2000/svg"
 width="828.000000pt" height="731.000000pt" viewBox="0 0 828.000000 731.000000"
 preserveAspectRatio="xMidYMid meet">

<g transform="translate(0.000000,731.000000) scale(0.100000,-0.100000)"
fill="#F98014" stroke="none">
<path d="M3263 7296 c9 -23 4169 -7260 4181 -7273 8 -9 95 133 341 559 417
721 419 724 456 838 26 79 32 116 37 220 5 142 -13 242 -66 355 -32 66 -2761
4843 -2823 4941 -48 74 -163 188 -242 238 -70 45 -173 90 -259 113 -56 15
-148 17 -847 20 -683 3 -783 2 -778 -11z"/>
<path d="M2522 6054 c-23 -38 -446 -771 -942 -1629 l-900 -1560 1876 -3 c1033
-1 1879 0 1881 2 2 2 -414 728 -925 1612 -511 885 -933 1618 -939 1628 -9 17
-15 11 -51 -50z"/>
<path d="M3 1656 c13 -32 741 -1284 772 -1326 80 -109 215 -213 348 -268 158
-66 -17 -62 2597 -62 1533 0 2370 3 2368 10 -1 5 -217 381 -478 834 l-475 825
-2569 1 c-2223 0 -2567 -2 -2563 -14z"/>
</g>
</svg>
